# xmcd
#
# Track frame offsets:
# 150
# 14145
# 25900
# 42052
# 55037
# 68670
# 83927
# 99577
# 115887
# 128592
# 142100
# 154507
# 166002
# 179262
# 191687
# 208130
# 222032
# 236867
# 261747
#
# Disc length: 3788 seconds
#
# Revision: 0
# Processed by: cddbd v1.5PL3 Copyright (c) Steve Scherf et al.
# Submitted via: plextools 2.08
#
DISCID=100eca13
DTITLE=Various Artist - Dans Mix
DYEAR=1900
DGENRE=Misc
TTITLE0=Towe Widerbergs and Charlotta Funge - Du Är Allt För mig
TTITLE1=Carina Jaarnek - Ingenting Mer,Ingenting mindre
TTITLE2=Salut - Mitt Liv Tillsammans Med Dig
TTITLE3=Christina Lindbergs - Säg mig
TTITLE4=Thorells Orkester - Ge Mig Dina tankar
TTITLE5=Schytts - De E´ La gött
TTITLE6=Torgny Mellin´s - Det Var En sommar
TTITLE7=Matz Bladhs - Som En ängel
TTITLE8=Stefan Borsch Orkester - En Anna Tid En Annan plats
TTITLE9=Safir Med Ove Pilebo - Rosalie
TTITLE10=Thor Erics - Drömsemestern
TTITLE11=Arvingarna - Elenore
TTITLE12=Wizex - Jag Kan Se En ängel
TTITLE13=Chaps - Sofia Dansar go-go
TTITLE14=Pelles - Om En stund
TTITLE15=Göran Lindbergs Orkester - Den Röda stugan
TTITLE16=Thorleifs - Lite Av Din Tid, Lite Av Din kärlek
TTITLE17=Streaplers - Superhit-mix
TTITLE18=Flamingokvintetten - Flamingo-mix
EXTD=
EXTT0=
EXTT1=
EXTT2=
EXTT3=
EXTT4=
EXTT5=
EXTT6=
EXTT7=
EXTT8=
EXTT9=
EXTT10=
EXTT11=
EXTT12=
EXTT13=
EXTT14=
EXTT15=
EXTT16=
EXTT17=
EXTT18=
PLAYORDER=
